<?xml version="1.0" standalone="no"?><!DOCTYPE svg PUBLIC "-//W3C//DTD SVG 1.1//EN" "http://www.w3.org/Graphics/SVG/1.1/DTD/svg11.dtd"><svg t="1582549038065" class="icon" viewBox="0 0 1055 1024" version="1.1" xmlns="http://www.w3.org/2000/svg" p-id="2451" xmlns:xlink="http://www.w3.org/1999/xlink" width="65.9375" height="64"><defs><style type="text/css">@font-face { font-family: element-icons; src: url("chrome-extension://moombeodfomdpjnpocobemoiaemednkg/fonts/element-icons.woff") format("woff"), url("chrome-extension://moombeodfomdpjnpocobemoiaemednkg/fonts/element-icons.ttf ") format("truetype"); }
</style></defs><path d="M360.85225 320.724528H99.576197L26.157329 41.613933 83.525109 26.454572l62.123657 234.82148h215.203484v59.448476zM952.959071 320.724528h-261.276052v-59.448476h215.500726L969.01016 26.454572l57.367779 15.159361-73.418868 279.110595zM83.525109 1024l-57.36778-15.159361 73.418868-279.110595h261.276053v59.448476H145.648766l-62.123657 234.82148zM969.01016 1024l-61.826415-234.82148h-215.500726v-59.448476h261.276052l73.418868 279.110595-57.367779 15.159361zM0 521.363135h241.658055v59.448476H0zM813.552395 521.363135h241.955297v59.448476h-241.955297z" p-id="2452" fill="#1e1e1e"></path><path d="M534.739042 193.207547m-193.207547 0a193.207547 193.207547 0 1 0 386.415094 0 193.207547 193.207547 0 1 0-386.415094 0Z" p-id="2453" fill="#1e1e1e"></path><path d="M206.583454 554.654282a370.958491 326.074891 90 1 0 652.149783 0 370.958491 326.074891 90 1 0-652.149783 0Z" p-id="2454" fill="#1e1e1e"></path></svg>