<?xml version="1.0" standalone="no"?><!DOCTYPE svg PUBLIC "-//W3C//DTD SVG 1.1//EN" "http://www.w3.org/Graphics/SVG/1.1/DTD/svg11.dtd"><svg t="1582549150704" class="icon" viewBox="0 0 1024 1024" version="1.1" xmlns="http://www.w3.org/2000/svg" p-id="3413" xmlns:xlink="http://www.w3.org/1999/xlink" width="64" height="64"><defs><style type="text/css">@font-face { font-family: element-icons; src: url("chrome-extension://moombeodfomdpjnpocobemoiaemednkg/fonts/element-icons.woff") format("woff"), url("chrome-extension://moombeodfomdpjnpocobemoiaemednkg/fonts/element-icons.ttf ") format("truetype"); }
</style></defs><path d="M418.133333 930.133333c-21.333333-4.266667-38.4-25.6-34.133333-51.2L546.133333 128c4.266667-21.333333 25.6-38.4 51.2-34.133333 21.333333 4.266667 38.4 25.6 34.133334 51.2L469.333333 896c-4.266667 21.333333-21.333333 34.133333-42.666666 34.133333h-8.533334z m277.333334-132.266666c-17.066667-17.066667-17.066667-42.666667 0-59.733334l226.133333-226.133333-226.133333-226.133333c-17.066667-17.066667-17.066667-42.666667 0-59.733334 17.066667-17.066667 42.666667-17.066667 59.733333 0l256 256c17.066667 17.066667 17.066667 42.666667 0 59.733334l-256 256c-8.533333 8.533333-17.066667 12.8-29.866667 12.8-12.8 0-21.333333-4.266667-29.866666-12.8z m-426.666667 0l-256-256c-17.066667-17.066667-17.066667-42.666667 0-59.733334l256-256c17.066667-17.066667 42.666667-17.066667 59.733333 0 17.066667 17.066667 17.066667 42.666667 0 59.733334L102.4 512l226.133333 226.133333c17.066667 17.066667 17.066667 42.666667 0 59.733334-8.533333 8.533333-17.066667 12.8-29.866666 12.8-12.8 0-21.333333-4.266667-29.866667-12.8z" p-id="3414" fill="#1e1e1e"></path></svg>