<?xml version="1.0" standalone="no"?><!DOCTYPE svg PUBLIC "-//W3C//DTD SVG 1.1//EN" "http://www.w3.org/Graphics/SVG/1.1/DTD/svg11.dtd"><svg t="1560836818569" class="icon" style="" viewBox="0 0 1083 1024" version="1.1" xmlns="http://www.w3.org/2000/svg" p-id="4451" xmlns:xlink="http://www.w3.org/1999/xlink" width="135.375" height="128"><defs><style type="text/css"></style></defs><path d="M1009.753043 897.766029H336.792116a70.121739 70.121739 0 0 1-70.077217-70.062377V490.852174a70.121739 70.121739 0 0 1 70.077217-70.077217h672.931246a70.121739 70.121739 0 0 1 70.077218 70.077217v336.851478a70.047536 70.047536 0 0 1-70.077218 70.062377z m13.875943-420.552348H322.931014V841.46087h700.594087V477.213681h0.118725z m-73.46087 76.577391h5.268406c14.009507 0 25.407072 11.382725 25.407072 25.407073V732.085797c0 14.009507-11.397565 25.407072-25.407072 25.407073h-5.253565a25.421913 25.421913 0 0 1-25.407073-25.407073V579.198145c0-14.024348 11.382725-25.407072 25.407073-25.407073zM278.379594 98.704696H549.398261c14.009507 0 25.392232 10.878145 25.392232 24.902492v5.253566c0 14.009507-11.382725 25.778087-25.392232 25.778087H278.364754c-14.009507 0-25.407072-11.76858-25.407073-25.778087v-5.253566c0-14.024348 11.397565-24.902493 25.407073-24.902492z m465.222493 0s-8.503652-41.924638-48.038957-41.924638H106.822493s-50.057275-0.371014-50.057276 49.67142v799.462029s3.754667 33.153855 47.935073 47.163363l560.187362 0.504579s64.185507 12.258319 73.698319-30.423188v2.018319h65.699246c-0.50458 21.014261-19.530203 98.229797-125.506782 98.229797H93.673739S0.460058 998.370319 0.460058 899.635942V94.682899S14.350841 0.593623 114.821565 0.593623h579.094261s105.234551-3.250087 105.234551 107.490319v283.291826h-55.429565V98.704696h-0.133566z m60.816696 826.679652v-1.216928 1.216928z" p-id="4452"></path></svg>