<?xml version="1.0" standalone="no"?><!DOCTYPE svg PUBLIC "-//W3C//DTD SVG 1.1//EN" "http://www.w3.org/Graphics/SVG/1.1/DTD/svg11.dtd"><svg t="1560836777922" class="icon" style="" viewBox="0 0 1024 1024" version="1.1" xmlns="http://www.w3.org/2000/svg" p-id="3546" xmlns:xlink="http://www.w3.org/1999/xlink" width="128" height="128"><defs><style type="text/css"></style></defs><path d="M512 465.454545c27.927273 0 46.545455 18.618182 46.545455 46.545455s-18.618182 46.545455-46.545455 46.545455-46.545455-18.618182-46.545455-46.545455 18.618182-46.545455 46.545455-46.545455m0-46.545454c-51.2 0-93.090909 41.890909-93.090909 93.090909s41.890909 93.090909 93.090909 93.090909 93.090909-41.890909 93.090909-93.090909-41.890909-93.090909-93.090909-93.090909z" fill="" p-id="3547"></path><path d="M512 418.909091c209.454545 0 325.818182 65.163636 325.818182 93.090909s-116.363636 93.090909-325.818182 93.090909-325.818182-65.163636-325.818182-93.090909 116.363636-93.090909 325.818182-93.090909m0-46.545455c-204.8 0-372.363636 60.509091-372.363636 139.636364s167.563636 139.636364 372.363636 139.636364 372.363636-60.509091 372.363636-139.636364-167.563636-139.636364-372.363636-139.636364z" fill="" p-id="3548"></path><path d="M837.818182 46.545455c79.127273 0 139.636364 60.509091 139.636363 139.636363v651.636364c0 79.127273-60.509091 139.636364-139.636363 139.636363H186.181818c-79.127273 0-139.636364-60.509091-139.636363-139.636363V186.181818c0-79.127273 60.509091-139.636364 139.636363-139.636363h651.636364m0-46.545455H186.181818C83.781818 0 0 83.781818 0 186.181818v651.636364c0 102.4 83.781818 186.181818 186.181818 186.181818h651.636364c102.4 0 186.181818-83.781818 186.181818-186.181818V186.181818c0-102.4-83.781818-186.181818-186.181818-186.181818z" fill="" p-id="3549"></path></svg>