<?xml version="1.0" standalone="no"?><!DOCTYPE svg PUBLIC "-//W3C//DTD SVG 1.1//EN" "http://www.w3.org/Graphics/SVG/1.1/DTD/svg11.dtd"><svg t="1582548116691" class="icon" viewBox="0 0 1024 1024" version="1.1" xmlns="http://www.w3.org/2000/svg" p-id="4959" width="64" height="64" xmlns:xlink="http://www.w3.org/1999/xlink"><defs><style type="text/css">@font-face { font-family: element-icons; src: url("chrome-extension://moombeodfomdpjnpocobemoiaemednkg/fonts/element-icons.woff") format("woff"), url("chrome-extension://moombeodfomdpjnpocobemoiaemednkg/fonts/element-icons.ttf ") format("truetype"); }
</style></defs><path d="M736 0H288C235.2 0 192 43.2 192 96v832c0 52.8 43.2 96 96 96h448c52.8 0 96-43.2 96-96V96c0-52.8-43.2-96-96-96zM384 48h256v32h-256v-32zM512 960a64 64 0 1 1-0.032-127.968A64 64 0 0 1 512 960z m256-192H256V128h512v640z" p-id="4960" fill="#ffffff"></path></svg>